<svg xmlns="http://www.w3.org/2000/svg" style="display:none">
  <symbol id="i-sun" viewBox="0 0 24 24">
    <circle cx="12" cy="12" r="4" fill="currentColor" />
    <path d="M12 2v3M12 19v3M4.2 4.2l2.1 2.1M17.7 17.7l2.1 2.1M2 12h3M19 12h3M4.2 19.8l2.1-2.1M17.7 6.3l2.1-2.1" stroke="currentColor" stroke-width="2" stroke-linecap="round" />
  </symbol>
  <symbol id="i-wifi" viewBox="0 0 24 24">
    <path d="M4.5 10.5a10 10 0 0 1 15 0" stroke="currentColor" stroke-width="2" fill="none" stroke-linecap="round" />
    <path d="M7.5 13.5a6 6 0 0 1 9 0" stroke="currentColor" stroke-width="2" fill="none" stroke-linecap="round" />
    <path d="M10.5 16.5a2 2 0 0 1 3 0" stroke="currentColor" stroke-width="2" fill="none" stroke-linecap="round" />
    <circle cx="12" cy="19" r="1" fill="currentColor" />
  </symbol>
  <symbol id="i-battery" viewBox="0 0 24 24">
    <rect x="3" y="8" width="16" height="8" rx="2" ry="2" stroke="currentColor" stroke-width="2" fill="none" />
    <rect x="20" y="10" width="2" height="4" rx="1" fill="currentColor" />
  </symbol>
  <symbol id="i-meal" viewBox="0 0 24 24">
    <path d="M4 11h16c0 4-4 7-8 7s-8-3-8-7z" stroke="currentColor" stroke-width="2" fill="none" />
    <path d="M6 7h12" stroke="currentColor" stroke-width="2" stroke-linecap="round" />
  </symbol>
  <symbol id="i-check" viewBox="0 0 24 24">
    <path d="M5 12l5 5 9-9" stroke="currentColor" stroke-width="2" fill="none" stroke-linecap="round" stroke-linejoin="round" />
  </symbol>
  <symbol id="i-plus" viewBox="0 0 24 24">
    <path d="M12 5v14M5 12h14" stroke="currentColor" stroke-width="2" fill="none" stroke-linecap="round" />
  </symbol>
  <symbol id="i-edit" viewBox="0 0 24 24">
    <path d="M4 20h4l10-10-4-4-10 10v4z" stroke="currentColor" stroke-width="2" fill="none" stroke-linejoin="round" />
    <path d="M13 6l4 4" stroke="currentColor" stroke-width="2" fill="none" stroke-linecap="round" />
  </symbol>
  <symbol id="i-home" viewBox="0 0 24 24">
    <path d="M4 11l8-7 8 7v8a1 1 0 0 1-1 1h-4v-6h-6v6H5a1 1 0 0 1-1-1v-8z" stroke="currentColor" stroke-width="2" fill="none" stroke-linejoin="round" />
  </symbol>
  <symbol id="i-history" viewBox="0 0 24 24">
    <circle cx="12" cy="12" r="8" stroke="currentColor" stroke-width="2" fill="none" />
    <path d="M12 8v5l3 2" stroke="currentColor" stroke-width="2" fill="none" stroke-linecap="round" stroke-linejoin="round" />
  </symbol>
  <symbol id="i-chart" viewBox="0 0 24 24">
    <path d="M4 19h16" stroke="currentColor" stroke-width="2" fill="none" stroke-linecap="round" />
    <path d="M7 16v-5M12 19v-8M17 19v-11" stroke="currentColor" stroke-width="2" fill="none" stroke-linecap="round" />
  </symbol>
  <symbol id="i-settings" viewBox="0 0 24 24">
    <circle cx="12" cy="12" r="3" stroke="currentColor" stroke-width="2" fill="none" />
    <path d="M12 2v3M12 19v3M4.5 4.5l2.1 2.1M17.4 17.4l2.1 2.1M2 12h3M19 12h3M4.5 19.5l2.1-2.1M17.4 6.6l2.1-2.1" stroke="currentColor" stroke-width="2" fill="none" stroke-linecap="round" />
  </symbol>
  <symbol id="i-arrow-left" viewBox="0 0 24 24">
    <path d="M15 6l-6 6 6 6" stroke="currentColor" stroke-width="2" fill="none" stroke-linecap="round" stroke-linejoin="round" />
  </symbol>
  <symbol id="i-chevron-down" viewBox="0 0 24 24">
    <path d="M6 9l6 6 6-6" stroke="currentColor" stroke-width="2" fill="none" stroke-linecap="round" stroke-linejoin="round" />
  </symbol>
  <symbol id="i-warning" viewBox="0 0 24 24">
    <path d="M12 3l9 16H3z" stroke="currentColor" stroke-width="2" fill="none" stroke-linejoin="round" />
    <path d="M12 9v5" stroke="currentColor" stroke-width="2" stroke-linecap="round" />
    <circle cx="12" cy="17" r="1" fill="currentColor" />
  </symbol>
  <symbol id="i-star" viewBox="0 0 24 24">
    <path d="M12 3l2.8 5.7 6.2.9-4.5 4.4 1.1 6.2L12 17l-5.6 3.2 1.1-6.2-4.5-4.4 6.2-.9z" stroke="currentColor" stroke-width="2" fill="none" stroke-linejoin="round" />
  </symbol>
</svg>
